<?xml version="1.0" encoding="UTF-8" standalone="no" ?>
<!DOCTYPE svg PUBLIC "-//W3C//DTD SVG 1.1//EN" "http://www.w3.org/Graphics/SVG/1.1/DTD/svg11.dtd">
<svg xmlns="http://www.w3.org/2000/svg" xmlns:xlink="http://www.w3.org/1999/xlink" version="1.1" width="3000" height="3000" viewBox="0 0 3000 3000" preserveAspectRatio="none">
<defs>
</defs>
<g transform="matrix(2.96 0 0 2.91 2144.02 2293.02)" id="mqnezmmkCqebF5ud_uKLZ"  >
<path style="stroke: rgb(15,105,131); stroke-width: 200; stroke-dasharray: none; stroke-linecap: butt; stroke-dashoffset: 0; stroke-linejoin: miter; stroke-miterlimit: 4; fill: rgb(255,255,255); fill-opacity: 0; fill-rule: nonzero; opacity: 1;"   transform=" translate(0, 0)" d="M -548.68785 486.27268 C -478.24586 393.73123999999996 -500.34531000000004 343.92116 -381.56078 253.88317999999998 C -262.77625 163.84519999999998 -193.71548 216.76675999999998 -73.54973000000001 126.12074999999999 C 46.61601999999999 35.47473999999998 -14.330120000000008 -22.720190000000002 99.10219999999998 -108.70085 C 212.53452 -194.68151 267.78314 -123.40894 380.17955 -217.8019 C 492.57596 -312.19486 548.68784 -486.27267 548.68784 -486.27267" stroke-linecap="round" />
</g>
<g transform="matrix(2.96 0 0 2.91 1847.69 1929.39)" id="vaBFcqZ_g0uVKZt5sNfZ7"  >
<path style="stroke: rgb(38,145,165); stroke-width: 200; stroke-dasharray: none; stroke-linecap: butt; stroke-dashoffset: 0; stroke-linejoin: miter; stroke-miterlimit: 4; fill: rgb(255,255,255); fill-opacity: 0; fill-rule: nonzero; opacity: 1;"   transform=" translate(0, 0)" d="M -548.68785 486.27268 C -478.24586 393.73123999999996 -500.34531000000004 343.92116 -381.56078 253.88317999999998 C -262.77625 163.84519999999998 -193.71548 216.76675999999998 -73.54973000000001 126.12074999999999 C 46.61601999999999 35.47473999999998 -14.330120000000008 -22.720190000000002 99.10219999999998 -108.70085 C 212.53452 -194.68151 267.78314 -123.40894 380.17955 -217.8019 C 492.57596 -312.19486 548.68784 -486.27267 548.68784 -486.27267" stroke-linecap="round" />
</g>
<g transform="matrix(2.96 0 0 2.91 1551.36 1565.76)" id="U_fhWrYe-FcGBzREv8HJX"  >
<path style="stroke: rgb(226,150,134); stroke-width: 200; stroke-dasharray: none; stroke-linecap: butt; stroke-dashoffset: 0; stroke-linejoin: miter; stroke-miterlimit: 4; fill: rgb(255,255,255); fill-opacity: 0; fill-rule: nonzero; opacity: 1;"   transform=" translate(0, 0)" d="M -548.68785 486.27268 C -478.24586 393.73123999999996 -500.34531000000004 343.92116 -381.56078 253.88317999999998 C -262.77625 163.84519999999998 -193.71548 216.76675999999998 -73.54973000000001 126.12074999999999 C 46.61601999999999 35.47473999999998 -14.330120000000008 -22.720190000000002 99.10219999999998 -108.70085 C 212.53452 -194.68151 267.78314 -123.40894 380.17955 -217.8019 C 492.57596 -312.19486 548.68784 -486.27267 548.68784 -486.27267" stroke-linecap="round" />
</g>
<g transform="matrix(2.96 0 0 2.91 1255.03 1202.12)" id="5CuDZcBgSedu-FFCrH6Cs"  >
<path style="stroke: rgb(250,170,143); stroke-width: 200; stroke-dasharray: none; stroke-linecap: butt; stroke-dashoffset: 0; stroke-linejoin: miter; stroke-miterlimit: 4; fill: rgb(255,255,255); fill-opacity: 0; fill-rule: nonzero; opacity: 1;"   transform=" translate(0, 0)" d="M -548.68785 486.27268 C -478.24586 393.73123999999996 -500.34531000000004 343.92116 -381.56078 253.88317999999998 C -262.77625 163.84519999999998 -193.71548 216.76675999999998 -73.54973000000001 126.12074999999999 C 46.61601999999999 35.47473999999998 -14.330120000000008 -22.720190000000002 99.10219999999998 -108.70085 C 212.53452 -194.68151 267.78314 -123.40894 380.17955 -217.8019 C 492.57596 -312.19486 548.68784 -486.27267 548.68784 -486.27267" stroke-linecap="round" />
</g>
<g transform="matrix(2.96 0 0 2.91 958.71 838.49)" id="w-IQcFGA_5YEKgNddY5rw"  >
<path style="stroke: rgb(249,198,179); stroke-width: 200; stroke-dasharray: none; stroke-linecap: butt; stroke-dashoffset: 0; stroke-linejoin: miter; stroke-miterlimit: 4; fill: rgb(255,255,255); fill-opacity: 0; fill-rule: nonzero; opacity: 1;"   transform=" translate(0, 0)" d="M -548.68785 486.27268 C -478.24586 393.73123999999996 -500.34531000000004 343.92116 -381.56078 253.88317999999998 C -262.77625 163.84519999999998 -193.71548 216.76675999999998 -73.54973000000001 126.12074999999999 C 46.61601999999999 35.47473999999998 -14.330120000000008 -22.720190000000002 99.10219999999998 -108.70085 C 212.53452 -194.68151 267.78314 -123.40894 380.17955 -217.8019 C 492.57596 -312.19486 548.68784 -486.27267 548.68784 -486.27267" stroke-linecap="round" />
</g>
</svg>
