<?xml version="1.0" encoding="utf-8"?>
<!-- Generator: Adobe Illustrator 16.0.4, SVG Export Plug-In . SVG Version: 6.00 Build 0)  -->
<!DOCTYPE svg PUBLIC "-//W3C//DTD SVG 1.1//EN" "http://www.w3.org/Graphics/SVG/1.1/DTD/svg11.dtd">
<svg version="1.1" id="Layer_1" xmlns="http://www.w3.org/2000/svg" xmlns:xlink="http://www.w3.org/1999/xlink" x="0px" y="0px"
	 width="50px" height="50px" viewBox="0 0 50 50" enable-background="new 0 0 50 50" xml:space="preserve">
	 <circle cx="25" cy="25" r="25" fill="#ff8fa6"/>
<path fill="white" d="M36.387,33.421c1.43,1.685,1.225,4.208-0.459,5.638c-0.752,0.64-1.672,0.951-2.588,0.951c-1.133,0-2.26-0.479-3.051-1.411
	l-9.351-11.01c-0.104-0.124-0.188-0.26-0.276-0.394V37c0,2.209-1.791,4-4,4s-4-1.791-4-4V13c0-2.209,1.791-4,4-4s4,1.791,4,4v9.805
	c0.088-0.134,0.172-0.27,0.276-0.394l9.351-11.01c1.43-1.685,3.952-1.892,5.639-0.46c1.684,1.43,1.889,3.953,0.459,5.638L29.236,25
	L36.387,33.421z"/>
</svg>
