<?xml version="1.0" encoding="utf-8"?>
<!-- Generator: Adobe Illustrator 16.2.1, SVG Export Plug-In . SVG Version: 6.00 Build 0)  -->
<!DOCTYPE svg PUBLIC "-//W3C//DTD SVG 1.1//EN" "http://www.w3.org/Graphics/SVG/1.1/DTD/svg11.dtd">
<svg version="1.1" id="Layer_1" xmlns="http://www.w3.org/2000/svg" xmlns:xlink="http://www.w3.org/1999/xlink" x="0px" y="0px" width="512px" height="512px" viewBox="0 0 512 512" enable-background="new 0 0 512 512" xml:space="preserve" fill="white">
<path fill="#00c234" d="M256,0C114.609,0,0,114.609,0,256s114.609,256,256,256s256-114.609,256-256S397.391,0,256,0z"/>
<path d="M256,0C114.609,0,0,114.609,0,256s114.609,256,256,256s256-114.609,256-256S397.391,0,256,0z M256,472
	c-119.297,0-216-96.703-216-216S136.703,40,256,40s216,96.703,216,216S375.297,472,256,472z"/>
<g>
	<polygon transform="scale(14) translate(-1.5)" points="17.816,26.413 14.889,14.974 14.889,24.152 15.821,24.152 15.821,26.413 10.5,26.413 10.5,24.152 11.431,24.152 11.431,13.91 10.5,13.91 10.5,11.649 17.816,11.649 20.21,21.705 22.338,11.649 29.5,11.649 29.5,13.91 28.569,13.91 28.569,24.152 29.5,24.152 29.5,26.413 23.714,26.413 23.714,24.152 24.645,24.152 24.645,14.974 21.719,26.413 "/>
</g>
</svg>
