<svg id="stack" width="100%" viewBox="0 0 100 100" xmlns="http://www.w3.org/2000/svg" xmlns:xlink="http://www.w3.org/1999/xlink">
<defs>
	<style type="text/css">
	<![CDATA[
	* {pointer-events: fill;}
	.i { display: none;}
	.i:target { display: block; }
	.main { fill: white;}
	.colored { fill: transparent;}
	#email:hover .colored { fill: #528036;}
	#linkedin:hover .colored { fill: #007bb6;}
	#github:hover .colored { fill: #999;}
	#resume:hover .colored { fill: #fff700;}
	]]>
	</style>
</defs>
<g id="arrow-left" class="i">
	<path class="main" d="M19.58 50L57.23 12.34c2 -1.99 2 -5.23 0 -7.23L53.61 1.5c-2 -2 -5.23 -2 -7.23 0L1.5 46.39c-2 2 -2 5.23 0 7.23l44.89 44.89c2 2 5.23 2 7.23 0l3.62 -3.62c2 -2 2 -5.24 0 -7.23L19.58 50z"/>
</g>
<g id="arrow-right" class="i">
	<path class="main" d="M57.23 46.39L12.34 1.5C10.35 -0.5 7.11 -0.5 5.11 1.5L1.5 5.11c-2 2 -2 5.24 0 7.23l37.65 37.66L1.5 87.65c-2 2 -2 5.24 0 7.23L5.11 98.5c2 2 5.23 2 7.23 0l44.89 -44.89C59.23 51.62 59.23 48.38 57.23 46.39z"/>
</g>
<g id="bullet" class="i">
	<path class="main" d="M50,3.5C24.36,3.5,3.5,24.36,3.5,50S24.36,96.5,50,96.5S96.5,75.64,96.5,50S75.64,3.5,50,3.5z M50,86.5   c-20.126,0-36.5-16.374-36.5-36.5S29.874,13.5,50,13.5S86.5,29.874,86.5,50S70.126,86.5,50,86.5z"/>
</g>
<g id="bullet-active" class="i">
	<path class="main" d="M50,3.5C24.36,3.5,3.5,24.36,3.5,50S24.36,96.5,50,96.5S96.5,75.64,96.5,50S75.64,3.5,50,3.5z M50,86.5   c-20.126,0-36.5-16.374-36.5-36.5S29.874,13.5,50,13.5S86.5,29.874,86.5,50S70.126,86.5,50,86.5z"/>
	<circle class="main" cx="50" cy="50" r="15"/>
</g>
<g id="email" class="i">
	<path class="colored hide" d="M50 0C22.38 0 0 22.38 0 50s22.38 50 50 50s50 -22.38 50 -50S77.62 0 50 0z"/>
	<path class="main hide" d="M50 0C22.38 0 0 22.38 0 50s22.38 50 50 50s50 -22.38 50 -50S77.62 0 50 0zM50 92.19c-23.3 0 -42.19 -18.89 -42.19 -42.19S26.7 7.81 50 7.81s42.19 18.89 42.19 42.19S73.3 92.19 50 92.19z"/>
	<path class="main hide" d="M61.69 38.74c0.03 -0.22 0.05 -0.42 0.05 -0.6c0 -1.72 -1.07 -2.57 -3.22 -2.57c-1.03 0 -1.73 0.18 -2.09 0.53c-0.37 0.35 -0.62 1.05 -0.76 2.1c-0.82 -1.16 -1.65 -1.94 -2.49 -2.35c-0.77 -0.37 -1.87 -0.55 -3.3 -0.55c-3.67 0 -6.86 1.87 -9.55 5.6c-2.48 3.43 -3.71 7.1 -3.71 11c0 3.05 0.8 5.72 2.41 8.03c1.78 2.54 4.11 3.81 6.99 3.81c2.46 0 4.82 -0.88 7.08 -2.65c1.02 1.76 2.76 2.65 5.22 2.65c4.66 0 8.65 -1.97 11.96 -5.9C73.43 54.09 75 49.79 75 44.93c0 -5.81 -2.44 -10.66 -7.33 -14.54C63.14 26.8 57.96 25 52.12 25c-7.6 0 -13.98 2.4 -19.14 7.21C27.66 37.16 25 43.49 25 51.18c0 7.86 2.73 13.9 8.17 18.12C38.06 73.1 44.47 75 52.41 75c3.38 0 6.68 -0.53 9.89 -1.59c3.53 -1.16 6.43 -2.8 8.71 -4.94c0.74 -0.7 1.44 -1.56 2.11 -2.57c0.84 -1.23 1.25 -2.22 1.25 -2.98c0 -0.57 -0.2 -1.08 -0.6 -1.53c-0.4 -0.45 -0.88 -0.67 -1.44 -0.67c-1.05 0 -1.94 0.37 -2.66 1.11c-1.19 1.28 -2.08 2.26 -2.66 2.93c-3.91 3.41 -8.76 5.12 -14.57 5.12c-6.23 0 -11.22 -1.53 -14.96 -4.59c-4.09 -3.34 -6.13 -8.13 -6.13 -14.36c0 -6.05 1.94 -11.1 5.83 -15.16C41.09 31.72 45.99 29.69 51.9 29.69c4.64 0 8.51 1.32 11.59 3.96c3.3 2.8 4.95 6.53 4.95 11.18c0 2.44 -0.42 4.71 -1.25 6.8c-0.93 2.35 -2.29 4.17 -4.06 5.44c-1.33 0.96 -2.37 1.43 -3.12 1.43c-0.82 0 -1.23 -0.38 -1.23 -1.16c0 -0.32 0.21 -1.8 0.64 -4.44L61.69 38.74zM52.22 52.65c-1.51 4.19 -3.12 6.29 -4.82 6.29c-2.55 0 -3.82 -1.62 -3.82 -4.87c0 -2.52 0.73 -5.37 2.19 -8.53c1.71 -3.74 3.65 -5.61 5.83 -5.61c0.9 0 1.57 0.49 2.02 1.46c0.36 0.74 0.54 1.63 0.54 2.66C54.16 46.23 53.51 49.1 52.22 52.65z"/>
</g>
<g id="email-hover" class="i">
	<path fill="#528036" d="M50 0C22.38 0 0 22.38 0 50s22.38 50 50 50s50 -22.38 50 -50S77.62 0 50 0z"/>
	<path class="main" d="M50 0C22.38 0 0 22.38 0 50s22.38 50 50 50s50 -22.38 50 -50S77.62 0 50 0zM50 92.19c-23.3 0 -42.19 -18.89 -42.19 -42.19S26.7 7.81 50 7.81s42.19 18.89 42.19 42.19S73.3 92.19 50 92.19z"/>
	<path class="main" d="M61.69 38.74c0.03 -0.22 0.05 -0.42 0.05 -0.6c0 -1.72 -1.07 -2.57 -3.22 -2.57c-1.03 0 -1.73 0.18 -2.09 0.53c-0.37 0.35 -0.62 1.05 -0.76 2.1c-0.82 -1.16 -1.65 -1.94 -2.49 -2.35c-0.77 -0.37 -1.87 -0.55 -3.3 -0.55c-3.67 0 -6.86 1.87 -9.55 5.6c-2.48 3.43 -3.71 7.1 -3.71 11c0 3.05 0.8 5.72 2.41 8.03c1.78 2.54 4.11 3.81 6.99 3.81c2.46 0 4.82 -0.88 7.08 -2.65c1.02 1.76 2.76 2.65 5.22 2.65c4.66 0 8.65 -1.97 11.96 -5.9C73.43 54.09 75 49.79 75 44.93c0 -5.81 -2.44 -10.66 -7.33 -14.54C63.14 26.8 57.96 25 52.12 25c-7.6 0 -13.98 2.4 -19.14 7.21C27.66 37.16 25 43.49 25 51.18c0 7.86 2.73 13.9 8.17 18.12C38.06 73.1 44.47 75 52.41 75c3.38 0 6.68 -0.53 9.89 -1.59c3.53 -1.16 6.43 -2.8 8.71 -4.94c0.74 -0.7 1.44 -1.56 2.11 -2.57c0.84 -1.23 1.25 -2.22 1.25 -2.98c0 -0.57 -0.2 -1.08 -0.6 -1.53c-0.4 -0.45 -0.88 -0.67 -1.44 -0.67c-1.05 0 -1.94 0.37 -2.66 1.11c-1.19 1.28 -2.08 2.26 -2.66 2.93c-3.91 3.41 -8.76 5.12 -14.57 5.12c-6.23 0 -11.22 -1.53 -14.96 -4.59c-4.09 -3.34 -6.13 -8.13 -6.13 -14.36c0 -6.05 1.94 -11.1 5.83 -15.16C41.09 31.72 45.99 29.69 51.9 29.69c4.64 0 8.51 1.32 11.59 3.96c3.3 2.8 4.95 6.53 4.95 11.18c0 2.44 -0.42 4.71 -1.25 6.8c-0.93 2.35 -2.29 4.17 -4.06 5.44c-1.33 0.96 -2.37 1.43 -3.12 1.43c-0.82 0 -1.23 -0.38 -1.23 -1.16c0 -0.32 0.21 -1.8 0.64 -4.44L61.69 38.74zM52.22 52.65c-1.51 4.19 -3.12 6.29 -4.82 6.29c-2.55 0 -3.82 -1.62 -3.82 -4.87c0 -2.52 0.73 -5.37 2.19 -8.53c1.71 -3.74 3.65 -5.61 5.83 -5.61c0.9 0 1.57 0.49 2.02 1.46c0.36 0.74 0.54 1.63 0.54 2.66C54.16 46.23 53.51 49.1 52.22 52.65z"/>
</g>
<g id="github" class="i">
	<path class="colored" d="M50 0C22.38 0 0 22.38 0 50s22.38 50 50 50s50 -22.38 50 -50S77.62 0 50 0z"/>
	<path class="main" d="M50 0C22.38 0 0 22.38 0 50s22.38 50 50 50s50 -22.38 50 -50S77.62 0 50 0zM50 92.19c-23.3 0 -42.19 -18.89 -42.19 -42.19S26.7 7.81 50 7.81s42.19 18.89 42.19 42.19S73.3 92.19 50 92.19z"/>
	<path class="main" fill-rule="evenodd" clip-rule="evenodd" d="M65.63 25.15c-5.13 2.8 -10.42 0.44 -14.24 0c-16.84 -1.93 -22.2 15.18 -9.92 22.04c-3.16 1.43 -2.95 8.68 0.43 9.71c-7.97 0.8 -9.45 10.58 -5.18 14.58c5.2 4.85 21.2 4.53 25.89 0c3.27 -3.17 3.73 -9.69 0.86 -12.7c-2.62 -2.75 -15.73 -3.16 -15.53 -7.47c0.14 -3.02 4.89 -2.54 7.77 -3.74c5.42 -2.26 8.6 -9.01 6.47 -14.2c1.21 -0.2 2.24 -0.55 3.45 -0.74C65.63 30.13 65.63 27.64 65.63 25.15zM44.92 40.85c-6.31 -11.98 14.52 -11.12 8.2 0C51.04 42.18 46.96 42.32 44.92 40.85zM56.57 64.38c0.56 5.37 -11.93 5.61 -13.38 1.87c-1.21 -3.15 0.3 -4.05 3.88 -4.86C51.14 60.47 56.19 60.79 56.57 64.38z"/>
</g>
<g  id="github-hover" class="i">
	<path fill="#999" d="M50 0C22.38 0 0 22.38 0 50s22.38 50 50 50s50 -22.38 50 -50S77.62 0 50 0z"/>
	<path class="main" d="M50 0C22.38 0 0 22.38 0 50s22.38 50 50 50s50 -22.38 50 -50S77.62 0 50 0zM50 92.19c-23.3 0 -42.19 -18.89 -42.19 -42.19S26.7 7.81 50 7.81s42.19 18.89 42.19 42.19S73.3 92.19 50 92.19z"/>
	<path class="main" fill-rule="evenodd" clip-rule="evenodd" d="M65.63 25.15c-5.13 2.8 -10.42 0.44 -14.24 0c-16.84 -1.93 -22.2 15.18 -9.92 22.04c-3.16 1.43 -2.95 8.68 0.43 9.71c-7.97 0.8 -9.45 10.58 -5.18 14.58c5.2 4.85 21.2 4.53 25.89 0c3.27 -3.17 3.73 -9.69 0.86 -12.7c-2.62 -2.75 -15.73 -3.16 -15.53 -7.47c0.14 -3.02 4.89 -2.54 7.77 -3.74c5.42 -2.26 8.6 -9.01 6.47 -14.2c1.21 -0.2 2.24 -0.55 3.45 -0.74C65.63 30.13 65.63 27.64 65.63 25.15zM44.92 40.85c-6.31 -11.98 14.52 -11.12 8.2 0C51.04 42.18 46.96 42.32 44.92 40.85zM56.57 64.38c0.56 5.37 -11.93 5.61 -13.38 1.87c-1.21 -3.15 0.3 -4.05 3.88 -4.86C51.14 60.47 56.19 60.79 56.57 64.38z"/>
</g>
<g id="linkedin" class="i">
	<path class="colored" d="M50 0C22.38 0 0 22.38 0 50s22.38 50 50 50s50 -22.38 50 -50S77.62 0 50 0z"/>
	<path class="main" d="M50 0C22.3845703125 0 0 22.3845703125 0 50s22.3845703125 50 50 50s50 -22.3845703125 50 -50S77.6154296875 0 50 0zM50 92.1875c-23.300195312499998 0 -42.1875 -18.887304687500002 -42.1875 -42.1875S26.699804687500002 7.8125 50 7.8125s42.1875 18.887304687500002 42.1875 42.1875S73.30019531250001 92.1875 50 92.1875z"/>
	<path class="main" fill-rule="evenodd" clip-rule="evenodd" d="M25.02 74.98h9.38v-37.5h-9.37V74.98zM62.52 37.48c-8.03 0.13 -11.97 5.98 -12.5 6.25v-6.25h-9.37v37.5h9.38v-21.87c0 -0.8 1.98 -7.23 9.38 -6.25c3.97 0.26 6.12 5.51 6.25 6.25v21.88l9.34 0.04V49.06C74.65 45.31 72.78 37.61 62.52 37.48zM29.71 24.98c-2.59 0 -4.69 2.1 -4.69 4.69s2.1 4.69 4.69 4.69s4.69 -2.1 4.69 -4.69S32.29 24.98 29.71 24.98z"/>
</g>
<g id="linkedin-hover" class="i">
	<path fill="#007bb6" d="M50 0C22.38 0 0 22.38 0 50s22.38 50 50 50s50 -22.38 50 -50S77.62 0 50 0z"/>
	<path class="main" d="M50 0C22.3845703125 0 0 22.3845703125 0 50s22.3845703125 50 50 50s50 -22.3845703125 50 -50S77.6154296875 0 50 0zM50 92.1875c-23.300195312499998 0 -42.1875 -18.887304687500002 -42.1875 -42.1875S26.699804687500002 7.8125 50 7.8125s42.1875 18.887304687500002 42.1875 42.1875S73.30019531250001 92.1875 50 92.1875z"/>
	<path class="main" fill-rule="evenodd" clip-rule="evenodd" d="M25.02 74.98h9.38v-37.5h-9.37V74.98zM62.52 37.48c-8.03 0.13 -11.97 5.98 -12.5 6.25v-6.25h-9.37v37.5h9.38v-21.87c0 -0.8 1.98 -7.23 9.38 -6.25c3.97 0.26 6.12 5.51 6.25 6.25v21.88l9.34 0.04V49.06C74.65 45.31 72.78 37.61 62.52 37.48zM29.71 24.98c-2.59 0 -4.69 2.1 -4.69 4.69s2.1 4.69 4.69 4.69s4.69 -2.1 4.69 -4.69S32.29 24.98 29.71 24.98z"/>
</g>
<g id="resume" class="i">
	<path class="colored" d="M50 0C22.38 0 0 22.38 0 50s22.38 50 50 50s50 -22.38 50 -50S77.62 0 50 0z"/>
	<path class="main" d="M50 0C22.38 0 0 22.38 0 50s22.38 50 50 50s50 -22.38 50 -50S77.62 0 50 0zM50 92.19c-23.3 0 -42.19 -18.89 -42.19 -42.19S26.7 7.81 50 7.81s42.19 18.89 42.19 42.19S73.3 92.19 50 92.19z"/>
	<path class="main" fill-rule="evenodd" clip-rule="evenodd" d="M28.13,28.13v6.25h43.75v-6.25H28.13z M56.25,37.5H28.13v6.25h28.13V37.5z M43.75,46.88h-15.63v6.25h15.63V46.88zM28.13,62.5h37.5v-6.25H28.13V62.5z M28.13,71.88h25v-6.25H28.13V71.88z"/>
</g>
<g id="resume-hover" class="i">
	<path fill="#fff700" d="M50 0C22.38 0 0 22.38 0 50s22.38 50 50 50s50 -22.38 50 -50S77.62 0 50 0z"/>
	<path class="main" d="M50 0C22.38 0 0 22.38 0 50s22.38 50 50 50s50 -22.38 50 -50S77.62 0 50 0zM50 92.19c-23.3 0 -42.19 -18.89 -42.19 -42.19S26.7 7.81 50 7.81s42.19 18.89 42.19 42.19S73.3 92.19 50 92.19z"/>
	<path class="main" fill-rule="evenodd" clip-rule="evenodd" d="M28.13,28.13v6.25h43.75v-6.25H28.13z M56.25,37.5H28.13v6.25h28.13V37.5z M43.75,46.88h-15.63v6.25h15.63V46.88zM28.13,62.5h37.5v-6.25H28.13V62.5z M28.13,71.88h25v-6.25H28.13V71.88z"/>
</g>
</svg>